<svg xmlns="http://www.w3.org/2000/svg" width="20" height="20">
    <defs>
        <filter id="a">
            <feFlood flood-color="#D25565" flood-opacity="1" result="floodOut"/>
            <feComposite in="floodOut" in2="SourceGraphic" operator="atop" result="compOut"/>
            <feBlend in="compOut" in2="SourceGraphic"/>
        </filter>
    </defs>
    <path fill="#D25565" fill-rule="evenodd" d="M6.868.227c-.521 0-.441.229-.721.269-.281.039.056-.111-.786.046-.842.158-1.14 1.224-1.18 1.619-.04.395-.05 1.504-.023 2.096.08.356-.201.356-.201.356-.505-.033-.278 1.515-.278 1.515.073.382-.026.572.722.867.355.998 1.285 1.526 1.285 1.526s.005.616.019 1.072c-.076-.037.26 1.165-2.062 1.502-2.321.337-2.766 1.077-3.203 1.489-.438.412-.421 2.41-.421 2.41l14.983.007s-.112-2.005-.549-2.417c-.438-.412-.915-1.152-3.236-1.489-2.257-.321-1.886-1.507-1.902-1.578.004-.179.028-.941.028-.941s.789-.613 1.145-1.61c.56-.348.773-.397.866-.798 0 0 .165-1.564-.364-1.556 0 0-.251.08-.171-.276.08-.355.054-1.465.014-1.859-.041-.395.02-1.523-.822-1.681C9.436.69 9.361.795 9.08.755 8.799.716 8.465 0 7.943 0L6.868.227z" filter="url(#a)"/>
</svg>
