<?xml version="1.0" encoding="UTF-8"?>
<!DOCTYPE svg PUBLIC "-//W3C//DTD SVG 1.1//EN" "http://www.w3.org/Graphics/SVG/1.1/DTD/svg11.dtd">
<!-- Creator: CorelDRAW X8 -->
<svg xmlns="http://www.w3.org/2000/svg" xml:space="preserve" width="350mm" height="125mm" version="1.1" style="shape-rendering:geometricPrecision; text-rendering:geometricPrecision; image-rendering:optimizeQuality; fill-rule:evenodd; clip-rule:evenodd"
viewBox="0 0 35000 12500"
 xmlns:xlink="http://www.w3.org/1999/xlink">
 <defs>
  <style type="text/css">
   <![CDATA[
    .str0 {stroke:#3D5B95;stroke-width:8.46}
    .str1 {stroke:#D25565;stroke-width:25}
    .fil2 {fill:none;fill-rule:nonzero}
    .fil1 {fill:#D25565;fill-rule:nonzero}
    .fil0 {fill:white;fill-rule:nonzero}
   ]]>
  </style>
 </defs>
 <g id="Слой_x0020_1">
  <metadata id="CorelCorpID_0Corel-Layer"/>
  <polygon class="fil0" points="2035,8873 2035,3894 4273,3894 4273,4355 2544,4355 2544,6070 3811,6070 3811,6524 2544,6524 2544,8411 4335,8411 4335,8873 "/>
  <path id="1" class="fil0" d="M5741 5431c-70,-187 -136,-376 -199,-567 -63,-192 -123,-386 -181,-584l0 4593 -448 0 0 -4979 744 0 1028 2823c78,225 152,440 218,644 68,206 129,404 185,597 -14,-148 -23,-300 -30,-457 -7,-157 -10,-367 -10,-632l0 -2975 447 0 0 4979 -501 0 -1253 -3442z"/>
  <path id="2" class="fil0" d="M10572 8873l-53 -291c-112,132 -238,230 -378,293 -140,63 -304,94 -490,94 -473,0 -829,-210 -1065,-630 -237,-421 -355,-1051 -355,-1891 0,-908 116,-1579 348,-2010 233,-432 592,-648 1079,-648 381,0 681,139 902,417 219,277 329,659 329,1147l-496 0c-18,-364 -90,-641 -217,-831 -127,-190 -302,-285 -526,-285 -315,0 -540,168 -676,503 -137,335 -206,898 -206,1693 0,726 76,1254 226,1585 151,330 389,496 716,496 230,0 410,-84 541,-253 132,-167 197,-398 197,-692l0 -584 -723 0 0 -448 1205 0 0 2335 -358 0z"/>
  <polygon id="3" class="fil0" points="11722,8873 11722,3894 12239,3894 12239,8398 13802,8398 13802,8873 "/>
  <polygon id="4" class="fil0" points="14338,8873 14338,3894 14847,3894 14847,8873 "/>
  <path id="5" class="fil0" d="M15564 7551l482 0c18,326 91,567 220,723 129,156 319,234 573,234 217,0 392,-75 526,-225 135,-150 202,-350 202,-599 0,-218 -62,-418 -187,-598 -125,-180 -383,-416 -774,-705 -393,-292 -652,-539 -778,-744 -126,-204 -189,-444 -189,-719 0,-320 105,-586 315,-799 210,-215 473,-322 788,-322 372,0 665,118 878,355 214,238 326,568 340,995l-468 0c-23,-305 -94,-536 -216,-691 -121,-155 -292,-232 -512,-232 -204,0 -367,63 -489,188 -120,127 -181,294 -181,506 0,107 22,212 64,314 43,102 102,194 178,274 112,117 281,260 506,427 225,169 366,276 425,323 280,227 481,449 601,666 121,218 181,464 181,740 0,394 -112,710 -336,949 -225,239 -520,358 -888,358 -395,0 -701,-123 -922,-369 -219,-247 -333,-597 -339,-1049z"/>
  <polygon id="6" class="fil0" points="18759,8873 18759,3894 19268,3894 19268,6029 20714,6029 20714,3894 21224,3894 21224,8873 20714,8873 20714,6504 19268,6504 19268,8873 "/>
  <path id="7" class="fil1" d="M24403 6101c28,5 55,8 86,9 30,1 72,1 126,1 310,0 531,-64 664,-191 132,-128 198,-340 198,-636 0,-267 -62,-462 -187,-585 -124,-124 -323,-186 -598,-186 -47,0 -94,3 -142,6 -48,4 -98,8 -147,15l0 1567zm-847 2772l0 -5034 1124 0c590,0 1011,117 1264,351 254,234 380,618 380,1155 0,470 -127,831 -383,1080 -256,250 -623,375 -1104,375l-434 0 0 2073 -847 0z"/>
  <path id="8" class="fil1" d="M27839 6101c26,5 51,8 76,9 26,1 64,1 116,1 314,0 538,-63 670,-190 132,-127 199,-339 199,-637 0,-269 -65,-465 -192,-587 -128,-122 -335,-184 -620,-184 -49,0 -124,4 -225,11 -11,2 -19,3 -24,3l0 1574zm1928 2772l-853 0 -606 -2094c-52,5 -108,9 -170,14 -62,5 -122,7 -181,7l-118 0 0 2073 -847 0 0 -5034 1117 0c325,0 569,20 731,62 163,41 308,110 433,206 152,120 272,286 358,499 86,215 129,452 129,712 0,304 -57,568 -173,791 -115,224 -287,402 -515,536l695 2228z"/>
  <path id="9" class="fil1" d="M31150 6357c0,644 52,1117 155,1420 104,304 265,455 486,455 220,0 382,-151 485,-455 104,-303 155,-776 155,-1420 0,-641 -51,-1112 -155,-1415 -103,-305 -265,-456 -485,-456 -221,0 -382,151 -486,456 -103,303 -155,774 -155,1415zm-840 1c0,-859 125,-1509 376,-1952 250,-442 618,-664 1105,-664 486,0 855,222 1105,664 250,443 375,1093 375,1952 0,862 -125,1516 -375,1959 -250,445 -619,666 -1105,666 -487,0 -855,-221 -1105,-666 -251,-443 -376,-1097 -376,-1959z"/>
  <polygon id="10" class="fil2 str0" points="2035,8873 2035,3894 4273,3894 4273,4355 2544,4355 2544,6070 3811,6070 3811,6524 2544,6524 2544,8411 4335,8411 4335,8873 "/>
  <path id="11" class="fil2 str0" d="M5741 5431c-70,-187 -136,-376 -199,-567 -63,-192 -123,-386 -181,-584l0 4593 -448 0 0 -4979 744 0 1028 2823c78,225 152,440 218,644 68,206 129,404 185,597 -14,-148 -23,-300 -30,-457 -7,-157 -10,-367 -10,-632l0 -2975 447 0 0 4979 -501 0 -1253 -3442z"/>
  <path id="12" class="fil2 str0" d="M10572 8873l-53 -291c-112,132 -238,230 -378,293 -140,63 -304,94 -490,94 -473,0 -829,-210 -1065,-630 -237,-421 -355,-1051 -355,-1891 0,-908 116,-1579 348,-2010 233,-432 592,-648 1079,-648 381,0 681,139 902,417 219,277 329,659 329,1147l-496 0c-18,-364 -90,-641 -217,-831 -127,-190 -302,-285 -526,-285 -315,0 -540,168 -676,503 -137,335 -206,898 -206,1693 0,726 76,1254 226,1585 151,330 389,496 716,496 230,0 410,-84 541,-253 132,-167 197,-398 197,-692l0 -584 -723 0 0 -448 1205 0 0 2335 -358 0z"/>
  <polygon id="13" class="fil2 str0" points="11722,8873 11722,3894 12239,3894 12239,8398 13802,8398 13802,8873 "/>
  <polygon id="14" class="fil2 str0" points="14338,8873 14338,3894 14847,3894 14847,8873 "/>
  <path id="15" class="fil2 str0" d="M15564 7551l482 0c18,326 91,567 220,723 129,156 319,234 573,234 217,0 392,-75 526,-225 135,-150 202,-350 202,-599 0,-218 -62,-418 -187,-598 -125,-180 -383,-416 -774,-705 -393,-292 -652,-539 -778,-744 -126,-204 -189,-444 -189,-719 0,-320 105,-586 315,-799 210,-215 473,-322 788,-322 372,0 665,118 878,355 214,238 326,568 340,995l-468 0c-23,-305 -94,-536 -216,-691 -121,-155 -292,-232 -512,-232 -204,0 -367,63 -489,188 -120,127 -181,294 -181,506 0,107 22,212 64,314 43,102 102,194 178,274 112,117 281,260 506,427 225,169 366,276 425,323 280,227 481,449 601,666 121,218 181,464 181,740 0,394 -112,710 -336,949 -225,239 -520,358 -888,358 -395,0 -701,-123 -922,-369 -219,-247 -333,-597 -339,-1049z"/>
  <polygon id="16" class="fil2 str0" points="18759,8873 18759,3894 19268,3894 19268,6029 20714,6029 20714,3894 21224,3894 21224,8873 20714,8873 20714,6504 19268,6504 19268,8873 "/>
  <path id="17" class="fil2 str1" d="M24403 6101c28,5 55,8 86,9 30,1 72,1 126,1 310,0 531,-64 664,-191 132,-128 198,-340 198,-636 0,-267 -62,-462 -187,-585 -124,-124 -323,-186 -598,-186 -47,0 -94,3 -142,6 -48,4 -98,8 -147,15l0 1567zm-847 2772l0 -5034 1124 0c590,0 1011,117 1264,351 254,234 380,618 380,1155 0,470 -127,831 -383,1080 -256,250 -623,375 -1104,375l-434 0 0 2073 -847 0z"/>
  <path id="18" class="fil2 str1" d="M27839 6101c26,5 51,8 76,9 26,1 64,1 116,1 314,0 538,-63 670,-190 132,-127 199,-339 199,-637 0,-269 -65,-465 -192,-587 -128,-122 -335,-184 -620,-184 -49,0 -124,4 -225,11 -11,2 -19,3 -24,3l0 1574zm1928 2772l-853 0 -606 -2094c-52,5 -108,9 -170,14 -62,5 -122,7 -181,7l-118 0 0 2073 -847 0 0 -5034 1117 0c325,0 569,20 731,62 163,41 308,110 433,206 152,120 272,286 358,499 86,215 129,452 129,712 0,304 -57,568 -173,791 -115,224 -287,402 -515,536l695 2228z"/>
  <path id="19" class="fil2 str1" d="M31150 6357c0,644 52,1117 155,1420 104,304 265,455 486,455 220,0 382,-151 485,-455 104,-303 155,-776 155,-1420 0,-641 -51,-1112 -155,-1415 -103,-305 -265,-456 -485,-456 -221,0 -382,151 -486,456 -103,303 -155,774 -155,1415zm-840 1c0,-859 125,-1509 376,-1952 250,-442 618,-664 1105,-664 486,0 855,222 1105,664 250,443 375,1093 375,1952 0,862 -125,1516 -375,1959 -250,445 -619,666 -1105,666 -487,0 -855,-221 -1105,-666 -251,-443 -376,-1097 -376,-1959z"/>
 </g>
</svg>
